<svg fill="none" xmlns="http://www.w3.org/2000/svg" viewBox="0 0 427 373"><path opacity=".42" d="M100.19 344.18c-1.95 2.14 1.25 5.12 3.98 6.15a156.75 156.75 0 0055.9 10.37l-3.25 5.54a174.41 174.41 0 0091.63.47l-4.63-7.17 26.84-1.33c4.26-.2 19.21 1.56 22.04-2.23 8.14-10.91-24.99-11.34-28.55-11.48a2067.07 2067.07 0 00-135.05-1.25c-4.57.16-26.07-2.1-28.91.93z" fill="#525369"/><path d="M251.06 245.87c-.72 14.17-1.57 28.37-2.56 42.6-.3 7.19-1.23 14.34-2.79 21.36a62.33 62.33 0 01-4.4 12.1c-.82 1.67-1.97 3.48-3.8 3.66-2.3.24-3.88-2.22-4.7-4.38-4.11-10.63-4.11-22.27-4.38-33.64-.15-5.89-.38-11.77-.7-17.66-.38-7.11-1.16-14.8-5.96-20.07-1.46-1.59-3.24-2.9-4.68-4.53-5.85-6.64-4.1-17.84 2.2-24.1 4.9-4.85 19.13-11.25 26-7.24 8.15 4.76 6.16 24.24 5.77 31.9z" fill="#06092B"/><path d="M209.95 221.54a18.11 18.11 0 012.75 10.93c-.33 11.54-7.19 21.76-10.63 32.8-5.15 16.68-2.28 34.55-1.76 52.04.24 2.41-.06 4.85-.88 7.13a5.97 5.97 0 01-5.59 3.82 7.46 7.46 0 01-4.45-2.65c-8.44-9.04-8.16-22.82-9.56-35.1-1.56-13.67-5.8-26.87-9.41-40.15-1.63-5.99-3.16-12.13-2.78-18.32.39-6.2 3-12.56 8.1-16.06 9.29-6.35 27.58-3.94 34.21 5.56z" fill="#06092B"/><path opacity=".52" d="M56.7 202.32h289.7a5 5 0 005-5v-4.38a5 5 0 00-5-5H56.7a5 5 0 00-5 5v4.38a5 5 0 005 5z" fill="#525369"/><path d="M110.2 169.45h196.03c9.21 0 16.68-7.48 16.68-16.7V16.7c0-9.22-7.47-16.69-16.68-16.69H110.2a16.68 16.68 0 00-16.68 16.69v136.07c0 9.21 7.47 16.69 16.68 16.69z" fill="#3CD3C1"/><path d="M110.2 169.45h196.03c9.21 0 16.68-7.48 16.68-16.7V16.7c0-9.22-7.47-16.69-16.68-16.69H110.2a16.68 16.68 0 00-16.68 16.69v136.07c0 9.21 7.47 16.69 16.68 16.69z" fill="#3CD3C1"/><path d="M165.79 26.53h-42.38a1.68 1.68 0 000 3.37h42.38a1.68 1.68 0 000-3.37zM148.08 33.03H123.3a1.57 1.57 0 000 3.15h24.78a1.57 1.57 0 100-3.15zM247.19 33.03h-84.7a1.59 1.59 0 100 3.18h84.7a1.59 1.59 0 100-3.18zM304.86 33.03h-46.28a1.59 1.59 0 100 3.18h46.28a1.59 1.59 0 000-3.18zM172.98 39.55h-35.07a1.66 1.66 0 000 3.33h35.07a1.66 1.66 0 000-3.33zM192.64 46.04h-42.38a1.68 1.68 0 000 3.36h42.38a1.68 1.68 0 000-3.36zM233.8 46.04h-34.63a1.87 1.87 0 100 3.73h34.62a1.87 1.87 0 000-3.73zM182.26 52.54h-32.18a1.57 1.57 0 000 3.14h32.18a1.57 1.57 0 000-3.14zM258.37 52.54h-69.4a1.75 1.75 0 100 3.49h69.4a1.75 1.75 0 100-3.5zM165.79 61.33h-42.38a1.68 1.68 0 000 3.36h42.38a1.68 1.68 0 000-3.36zM148.08 67.83H123.3a1.57 1.57 0 000 3.15h24.78a1.57 1.57 0 100-3.15zM247.19 67.83h-84.7a1.59 1.59 0 100 3.17h84.7a1.59 1.59 0 100-3.17zM304.86 67.83h-46.28a1.59 1.59 0 100 3.17h46.28a1.59 1.59 0 000-3.17zM172.98 74.33h-35.07a1.66 1.66 0 000 3.32h35.07a1.66 1.66 0 000-3.32zM192.64 80.84h-42.38a1.68 1.68 0 000 3.36h42.38a1.68 1.68 0 000-3.36zM233.8 80.84h-34.63a1.87 1.87 0 100 3.73h34.62a1.87 1.87 0 000-3.73zM182.26 87.33h-32.18a1.57 1.57 0 000 3.15h32.18a1.57 1.57 0 000-3.15zM258.37 87.33h-69.4a1.75 1.75 0 100 3.5h69.4a1.75 1.75 0 100-3.5zM165.79 96.12h-42.38a1.68 1.68 0 000 3.36h42.38a1.68 1.68 0 000-3.36zM148.08 102.61H123.3a1.57 1.57 0 000 3.15h24.78a1.57 1.57 0 100-3.15zM247.19 102.61h-84.7a1.59 1.59 0 100 3.18h84.7a1.59 1.59 0 000-3.18zM304.86 102.61h-46.28a1.59 1.59 0 100 3.18h46.28a1.59 1.59 0 000-3.18zM172.98 109.11h-35.07a1.66 1.66 0 100 3.32h35.07a1.66 1.66 0 100-3.32zM192.64 115.6h-42.38a1.68 1.68 0 000 3.37h42.38a1.68 1.68 0 000-3.36zM233.8 115.6h-34.63a1.87 1.87 0 000 3.74h34.62a1.87 1.87 0 000-3.73zM182.26 122.12h-32.18a1.57 1.57 0 100 3.15h32.18a1.57 1.57 0 100-3.15zM258.37 122.12h-69.4a1.75 1.75 0 100 3.5h69.4a1.75 1.75 0 100-3.5z" fill="#FAFAFA"/><path d="M263.42 178.63c.95 2.65 1.84 5.44 1.25 8.18-.21.95-.6 1.85-1.13 2.66-2.65 4.12-8.95 4.76-13.28 2.28-4.32-2.47-6.77-7.2-7.96-11.95-.47-1.6-.63-3.27-.47-4.92.39-2.88 2.3-5.31 4.3-7.44 2.65-2.76 7.52-6.38 11.1-3.06 3.2 2.98 4.77 10.27 6.2 14.25zM154.82 177.83a6.83 6.83 0 00-.79 3.57c.16.8.48 1.56.93 2.24 1.12 2 2.61 3.78 4.4 5.22a9.12 9.12 0 006.38 1.98c3.4-.37 6.1-3.07 7.9-5.98a16.39 16.39 0 002.83-9.38 11.96 11.96 0 00-4.88-8.96c-2.56-1.86-7.9-3.55-10.8-1.42-2.9 2.13-4.53 9.3-5.97 12.73zM233.24 80.24a3.2 3.2 0 012.79.49c.55.63.88 1.43.92 2.27.33 1.7.4 3.43.2 5.14a7.06 7.06 0 01-2.36 4.4c-1 .74-2.14 1.3-3.34 1.62-.9.41-1.94.45-2.87.1a3.3 3.3 0 01-1.43-2.45c-1.05-5.14.55-10.56 6.1-11.57zM184.9 78.46a3.3 3.3 0 00-1.61 0 3.33 3.33 0 00-1.92 3.04c-.08 1.25 0 2.5.24 3.73.23 2.06 1.07 4 2.42 5.57a4.51 4.51 0 005.51.96c5.64-3.9.33-12.21-4.65-13.3zM220.64 115.6c.26 1.2.33 2.44.21 3.66-.49 3.4-3.88 5.78-7.28 6.2-3.4.43-6.8-.71-9.97-1.97a7.96 7.96 0 01-2.65-1.52 5.91 5.91 0 01-1.53-2.93c-.38-1.92-.5-3.88-.34-5.82l.2-6.86c-.06-1.34.2-2.68.78-3.9 1.32-2.27 4.37-2.65 7-2.82 3.47-.15 8.7 0 10.98 3.16 2.28 3.16 2.02 9.11 2.6 12.8z" fill="#F8C0DD"/><path d="M231.31 59.63c1.04 2.9 1.4 5.98 1.07 9.04-.3 7.05-1.03 14.07-2.2 21.03-.88 5.22-2.26 10.83-6.4 14.12-1.17.8-2.29 1.69-3.33 2.66-.71.77-1.22 1.73-1.88 2.56-3.36 4.22-10.13 4.22-14.75 1.41-4.63-2.8-7.59-7.61-10.3-12.29-2.98-5.15-5.95-10.55-6.48-16.49-.43-4.7.67-9.66-1.13-14.03-1.32-3.21-4.07-5.79-4.68-9.2-.24-2.3.04-4.63.82-6.8 1.08-3.87 2.72-8.34 6.64-9.39 2.86-.77 5.8.7 8.77.79 3.77.13 7.6-1.98 11.19-.79 4.6 1.54 6.64 6.86 11.23 8.59 4.6 1.72 9.3 3.9 11.44 8.8z" fill="#06092B"/><path d="M246.56 127.73c-13.47-11.18-32.9-10.9-50.22-8.53-7.16.97-14.45 2.25-20.74 5.81-10.55 5.98-16.79 17.54-20.07 29.24-1.74 6.2-2.65 13.28.83 18.73 3.65 5.63 10.92 7.57 17.6 8.32 1.01.02 2.01.3 2.89.83.91.86 1.49 2.01 1.62 3.26 1.85 9.7-1.92 20.6 3.06 29.11 4.82 8.23 15.6 10.4 25.09 11.12 12.28.95 25.6.6 35.57-6.64a14.43 14.43 0 004.13-4.24c1.65-2.82 1.74-6.24 1.78-9.5.1-7.1-2.48-21.37.97-27.62 2.9-5.21 11.14-5.24 14.03-11.19 5.49-11.32-8.3-31.88-16.54-38.7z" fill="#fff"/><path d="M198 221.6l.1 16.67c.06.65-.04 1.3-.31 1.87-.44.6-1.07.98-1.76 1.07-4.05 1.05-8.28.45-12.42.47-4.15.01-8.63.83-11.61 4.07 4.53 3.75 10.37 4.77 15.98 5.5 8.3 1.11 16.61 1.84 24.94 2.2 5.4.45 10.83.14 16.16-.93a28.68 28.68 0 0012.82-6.68c-3.66-4.4-9.73-4.31-15.09-4.31-5.2 0-10.42-.34-15.6-1-.58.01-1.16-.11-1.7-.37a4.29 4.29 0 01-1.43-1.1 5.12 5.12 0 01-.5-2.85c.1-3.7.52-7.4 1.25-11a7.4 7.4 0 011.24-3.28 6.54 6.54 0 014.18-1.84 83.66 83.66 0 0017.79-5.43 19.76 19.76 0 006.5-4c5.17-5.26 4.95-14.3 3.75-22a60.97 60.97 0 01-31.27 9.94c-7.52.23-23.84-3.38-29.13 4.72-2.63 4.1.17 7.88 3.07 10.7 1.26 1.21 13.05 7.41 13.05 7.58z" fill="url(#paint0_linear)"/><path d="M225.09 149.49h-31.6a22.3 22.3 0 00-22.3 22.3v9.43a22.3 22.3 0 0022.3 22.3h31.6a22.3 22.3 0 0022.3-22.3v-9.42a22.3 22.3 0 00-22.3-22.31z" fill="#050720"/><path d="M225.09 149.49h-31.6a22.3 22.3 0 00-22.3 22.3v9.43a22.3 22.3 0 0022.3 22.3h31.6a22.3 22.3 0 0022.3-22.3v-9.42a22.3 22.3 0 00-22.3-22.31z" fill="url(#paint1_linear)"/><path d="M225.09 154.46h-31.6a22.3 22.3 0 00-22.3 22.3v9.43a22.3 22.3 0 0022.3 22.3h31.6a22.3 22.3 0 0022.3-22.3v-9.42a22.3 22.3 0 00-22.3-22.31z" fill="#191C3E"/><path d="M221.01 184.29a29.07 29.07 0 01-7.14 2.12c-6.64 1.22-14.4.96-19.18-3.86a8.54 8.54 0 01-1.79-2.55c-1.33-3.23.41-7.13 3.27-9.17 2.85-2.05 6.48-2.6 9.97-2.77 4.28-.2 12.4-.94 16.13 1.94 4.46 3.46 3.77 11.92-1.26 14.29z" fill="url(#paint2_linear)"/><path d="M208.01 261.88h.01a5.2 5.2 0 005.2-5.2V181.2a5.2 5.2 0 10-10.4 0v75.5a5.2 5.2 0 005.2 5.2z" fill="#fff"/><path d="M240 321.73c2.66 2.19 3.32 5.99 4.49 9.3 1.62 4.51 4.62 8.62 5.02 13.4a7.5 7.5 0 01-.68 4.15 6.64 6.64 0 01-5.76 3.24 12.6 12.6 0 01-6.55-2c-3.46-2.06-6.32-5-8.28-8.51-1-1.72-1.65-3.63-1.9-5.6-.53-6 5.68-20.36 13.66-13.98z" fill="#525369"/><path d="M244.95 347.08a2.4 2.4 0 010 2.27c-.3.33-.71.55-1.15.62-1.83.36-3.73.01-5.31-.97-1.57-.96-3-2.11-4.28-3.44a31.11 31.11 0 01-5.2-5.87 10.64 10.64 0 01-1.68-7.5c1.4-7.2 7.76-.75 10.1 1.9 3.33 3.8 5.89 8.2 7.52 12.99z" fill="#06092B"/><path d="M188.01 321.87c-2.65 2.2-3.32 6-4.48 9.3-1.63 4.52-4.63 8.64-5.02 13.4a7.54 7.54 0 00.67 4.17 6.64 6.64 0 005.77 3.23c2.32-.05 4.59-.74 6.54-2 3.47-2.06 6.32-5 8.29-8.51 1-1.72 1.65-3.63 1.88-5.61.53-6-5.68-20.4-13.65-13.98z" fill="#525369"/><path d="M182.38 347.6a2.44 2.44 0 000 2.27c.31.33.72.55 1.17.62 1.83.34 3.72 0 5.31-.97a22.14 22.14 0 004.27-3.44 30.87 30.87 0 005.2-5.89 10.64 10.64 0 001.69-7.49c-1.42-7.21-7.76-.76-10.1 1.91a38.7 38.7 0 00-7.54 12.99z" fill="#06092B"/><path d="M216.47 290.1a14 14 0 01-6.87 1.33c-2.61.15-5.24-.04-7.8-.57a5.44 5.44 0 01-2.37-1.1 5.4 5.4 0 01-1.33-1.89c-2.16-4.78-4.6-14.7-1.24-18.72 3.83-4.62 19.06-5.44 23.9-.58 4.69 4.54 1.29 18.25-4.29 21.53z" fill="#3CD3C1"/><path d="M216.47 290.1a14 14 0 01-6.87 1.33c-2.61.15-5.24-.04-7.8-.57a5.44 5.44 0 01-2.37-1.1 5.4 5.4 0 01-1.33-1.89c-2.16-4.78-4.6-14.7-1.24-18.72 3.83-4.62 19.06-5.44 23.9-.58 4.69 4.54 1.29 18.25-4.29 21.53z" fill="#393A55"/><path d="M205.9 335.05h6.93V290.3h-6.93v44.75z" fill="#fff"/><path d="M236.77 338.77c1.54 1.26 3.04 2.85 5.02 3.09 1.44.15 2.87-.46 4.33-.46 1.92.14 3.74.95 5.11 2.3a8.64 8.64 0 012.82 3.99c1.07 3.67-2.2 7.68-6 8.05-3.81.37-7.48-2.23-9.15-5.66-.36-.94-.84-1.83-1.41-2.66a7.7 7.7 0 00-1.9-1.49 55.59 55.59 0 00-18.36-7.26c-1.13-.23-2.51-.34-3.23.55a3.14 3.14 0 00-.54 1.73c-.3 2.65-.42 5.31-.36 7.97-.04.51.06 1.03.28 1.5.34.47.76.89 1.24 1.23a5.18 5.18 0 01.7 6.18 9.45 9.45 0 01-5.2 3.98c-2.55.94-5.76 1.1-7.66-.85a5.46 5.46 0 01-1-5.63 8.43 8.43 0 013.99-4.33 3.45 3.45 0 001.56-1.2c.23-.5.3-1.05.24-1.6l-.18-5.92a2.85 2.85 0 00-.9-2.46 2.66 2.66 0 00-1.73-.25 51.77 51.77 0 00-26.96 10.11c1.44 1.12 1.19 3.53-.1 4.81a6.98 6.98 0 01-5.07 1.57c-2.02.02-4-.56-5.68-1.66a5.86 5.86 0 01-2.65-5.1 5.93 5.93 0 013.54-4.68c1.9-.8 4-1.02 6.02-.65 1.04.22 2.1.3 3.17.25a9.6 9.6 0 003.35-1.4c9.2-5.2 19.4-8.36 29.92-9.3 8.81-.78 19.66-.6 26.8 5.25z" fill="#fff"/><path d="M167.9 273.7h77.52c9.2 0 16.66-7.47 16.66-16.68v-1.05c0-9.21-7.46-16.68-16.66-16.68H167.9c-9.2 0-16.67 7.47-16.67 16.68v1.05c0 9.2 7.47 16.67 16.67 16.67z" fill="#3CD3C1"/><path d="M167.9 273.7h77.52c9.2 0 16.66-7.47 16.66-16.68v-1.05c0-9.21-7.46-16.68-16.66-16.68H167.9c-9.2 0-16.67 7.47-16.67 16.68v1.05c0 9.2 7.47 16.67 16.67 16.67z" fill="#525369"/><rect y="115.65" width="114" height="54" rx="4" fill="#FAFAFA"/><path opacity=".7" d="M40.17 127.65H12.1a1.1 1.1 0 100 2.22h28.06a1.11 1.11 0 000-2.22zM28.44 131.96h-16.4a1.04 1.04 0 000 2.08h16.4a1.04 1.04 0 100-2.08zM94.03 131.96H37.98a1.05 1.05 0 100 2.1h56.05a1.05 1.05 0 000-2.1zM44.93 136.26H21.72a1.1 1.1 0 100 2.2h23.2a1.1 1.1 0 000-2.2zM57.93 140.56H29.88a1.11 1.11 0 000 2.22h28.05a1.1 1.1 0 100-2.22zM85.16 140.56h-22.9a1.24 1.24 0 000 2.48h22.9a1.24 1.24 0 000-2.47zM51.07 144.86h-21.3a1.04 1.04 0 100 2.08h21.3a1.04 1.04 0 000-2.08zM101.43 144.86H55.5a1.16 1.16 0 000 2.3h45.93a1.16 1.16 0 000-2.3zM40.17 150.68H12.1a1.1 1.1 0 100 2.22h28.06a1.11 1.11 0 000-2.22zM28.44 154.98h-16.4a1.04 1.04 0 100 2.09h16.4a1.04 1.04 0 100-2.09zM94.03 154.98H37.98a1.05 1.05 0 100 2.1h56.05a1.05 1.05 0 000-2.1z" fill="#3CD3C1"/><rect x="313" y="80.65" width="114" height="69" rx="4" fill="#FAFAFA"/><path opacity=".7" d="M353.17 93.65H325.1a1.11 1.11 0 000 2.22h28.06a1.11 1.11 0 100-2.22zM341.44 97.94h-16.4a1.04 1.04 0 000 2.09h16.4a1.04 1.04 0 100-2.09zM407.03 97.94h-56.05a1.05 1.05 0 100 2.1h56.05a1.05 1.05 0 000-2.1zM357.93 102.26h-23.21a1.1 1.1 0 100 2.2h23.2a1.1 1.1 0 000-2.2zM370.93 106.55h-28.05a1.11 1.11 0 000 2.22h28.05a1.11 1.11 0 100-2.22zM398.15 106.55h-22.9a1.24 1.24 0 000 2.47h22.9a1.24 1.24 0 100-2.47zM364.06 110.86h-21.3a1.04 1.04 0 000 2.08h21.3a1.04 1.04 0 000-2.08zM414.43 110.86H368.5a1.16 1.16 0 100 2.3h45.93a1.16 1.16 0 000-2.3zM353.17 116.68H325.1a1.1 1.1 0 100 2.22h28.06a1.11 1.11 0 000-2.22zM341.44 120.97h-16.4a1.04 1.04 0 000 2.08h16.4a1.04 1.04 0 000-2.08zM407.03 120.97h-56.05a1.05 1.05 0 100 2.1h56.05a1.05 1.05 0 100-2.1zM357.93 125.27h-23.21a1.1 1.1 0 000 2.2h23.2a1.1 1.1 0 000-2.2zM370.93 129.58h-28.05a1.11 1.11 0 000 2.22h28.05a1.11 1.11 0 100-2.22zM398.15 129.58h-22.9a1.24 1.24 0 000 2.47h22.9a1.24 1.24 0 100-2.47zM364.06 133.88h-21.3a1.04 1.04 0 000 2.09h21.3a1.04 1.04 0 000-2.09zM414.43 133.88H368.5a1.16 1.16 0 100 2.31h45.93a1.16 1.16 0 000-2.3z" fill="#3CD3C1"/><defs><linearGradient id="paint0_linear" x1="172" y1="221.16" x2="243.05" y2="221.16" gradientUnits="userSpaceOnUse"><stop stop-color="#010101" stop-opacity="0"/><stop offset=".95" stop-color="#525369"/></linearGradient><linearGradient id="paint1_linear" x1="15215.6" y1="13483.2" x2="19587.6" y2="13483.2" gradientUnits="userSpaceOnUse"><stop stop-color="#191C3E" stop-opacity=".33"/><stop offset=".95" stop-color="#010101"/></linearGradient><linearGradient id="paint2_linear" x1="10322.9" y1="4708.97" x2="10310.5" y2="5828.92" gradientUnits="userSpaceOnUse"><stop stop-color="#010101" stop-opacity="0"/><stop offset=".95" stop-color="#010101"/></linearGradient></defs></svg>
